<?xml version="1.0" standalone="no"?>
<!DOCTYPE svg PUBLIC "-//W3C//DTD SVG 20010904//EN"
 "http://www.w3.org/TR/2001/REC-SVG-20010904/DTD/svg10.dtd">
<svg version="1.0" xmlns="http://www.w3.org/2000/svg"
 width="600.000000pt" height="600.000000pt" viewBox="0 0 600.000000 600.000000"
 preserveAspectRatio="xMidYMid meet">

<g transform="translate(0.000000,600.000000) scale(0.100000,-0.100000)"
fill="#007AFF" stroke="none">
<path d="M10 3000 l0 -2990 2990 0 2990 0 0 2990 0 2990 -2990 0 -2990 0 0
-2990z m3175 2740 c459 -27 887 -121 1273 -282 94 -39 118 -80 67 -114 -23
-15 -29 -14 -117 24 -572 245 -1334 335 -1976 232 -298 -48 -591 -129 -832
-230 -105 -44 -108 -45 -130 -25 -50 45 -17 78 138 138 428 166 834 245 1372
265 19 1 112 -3 205 -8z m-2074 -628 c33 -27 30 -78 -5 -109 -30 -26 -44 -28
-79 -12 -70 32 -48 139 28 139 18 0 43 -8 56 -18z m3881 1 c37 -42 28 -101
-19 -122 -35 -16 -49 -14 -79 12 -55 48 -24 127 51 127 18 0 39 -8 47 -17z
m-4049 -154 c57 -70 -49 -163 -113 -99 -48 48 -2 139 63 126 18 -3 40 -16 50
-27z m4222 6 c31 -30 33 -77 5 -105 -27 -27 -83 -27 -110 2 -65 70 38 171 105
103z m-2415 -213 c14 -10 34 -35 45 -55 l20 -37 187 0 188 0 6 25 c8 32 64 81
103 90 45 10 97 -12 128 -52 23 -30 27 -45 26 -92 l-1 -56 149 -108 148 -107
44 11 c52 15 85 7 126 -27 53 -44 60 -137 13 -187 -20 -22 -20 -22 42 -202 61
-179 61 -180 94 -186 82 -16 126 -114 87 -190 -18 -34 -69 -69 -102 -69 -20 0
-28 -19 -81 -182 l-59 -183 23 -28 c48 -57 29 -159 -36 -192 -32 -17 -102 -20
-128 -6 -13 7 -51 -16 -167 -101 l-150 -109 3 -44 c4 -55 -21 -111 -62 -136
-66 -40 -163 -12 -192 56 l-14 35 -190 0 -190 0 -14 -35 c-29 -68 -126 -96
-192 -56 -43 26 -68 83 -60 137 l5 42 -151 110 -150 109 -38 -13 c-72 -25
-148 16 -168 90 -12 43 -2 89 27 120 19 21 18 23 -40 201 l-58 180 -48 15
c-129 41 -122 210 10 252 l41 13 57 177 c55 172 56 178 38 194 -10 9 -23 33
-29 53 -28 103 71 195 174 161 35 -11 36 -11 182 97 l148 108 0 57 c1 66 23
103 77 131 40 21 91 17 129 -11z m-2094 -226 c14 -23 14 -28 -6 -73 -254 -568
-351 -1325 -254 -1988 41 -283 126 -601 225 -840 22 -55 43 -109 46 -120 7
-29 -29 -59 -61 -51 -30 7 -54 56 -120 238 -276 764 -304 1593 -79 2376 47
164 132 398 163 450 24 40 62 43 86 8z m4754 -16 c20 -11 96 -197 153 -375
259 -809 238 -1694 -59 -2485 -70 -188 -83 -207 -129 -196 -42 11 -41 45 3
153 250 610 326 1333 211 2003 -43 245 -117 508 -210 736 -27 67 -49 125 -49
129 0 14 32 45 47 45 8 0 23 -4 33 -10z m-3334 -2471 c114 -35 168 -120 146
-228 -24 -114 -94 -161 -253 -169 l-97 -5 -7 -116 c-7 -121 -20 -161 -53 -161
-10 0 -26 6 -36 13 -18 13 -18 25 -2 329 9 174 19 324 22 333 4 9 16 21 28 26
30 13 181 0 252 -22z m561 -20 c81 -41 113 -86 113 -162 0 -69 -30 -121 -90
-155 l-49 -28 65 -122 c35 -67 64 -130 64 -140 0 -45 -57 -57 -87 -18 -10 13
-45 78 -78 145 l-59 121 -57 0 -57 0 -4 -136 c-3 -120 -6 -138 -23 -150 -26
-19 -41 -18 -65 6 -15 15 -18 29 -15 67 3 26 8 169 11 316 5 225 9 270 22 284
13 13 35 15 129 11 104 -4 117 -7 180 -39z m558 -4 l0 -40 -62 -3 -63 -3 0
-97 c0 -53 -3 -168 -7 -254 l-6 -158 44 0 c24 0 49 -4 55 -8 20 -14 25 -45 9
-68 -15 -23 -19 -24 -165 -24 -157 0 -180 6 -180 50 0 32 28 50 79 50 l48 0 6
152 c4 83 7 198 7 255 l0 103 -43 0 c-47 0 -67 13 -67 45 0 42 16 46 185 43
l160 -3 0 -40z m442 0 c89 -62 99 -126 20 -133 -27 -2 -38 2 -46 17 -16 29
-74 61 -113 61 -41 0 -65 -22 -74 -67 -8 -40 14 -64 113 -121 84 -49 136 -106
153 -167 25 -90 -12 -184 -87 -220 -113 -55 -303 21 -303 121 0 27 5 37 25 46
22 10 29 7 70 -31 39 -36 50 -41 93 -41 64 0 92 21 92 67 0 46 -26 89 -70 115
-152 92 -190 136 -190 222 0 116 70 180 192 174 59 -3 74 -8 125 -43z m268 36
c3 -5 27 -92 54 -193 27 -101 52 -176 55 -168 3 8 26 89 51 180 45 167 57 190
100 190 46 0 53 -23 59 -205 4 -93 9 -236 12 -316 6 -160 0 -179 -51 -179 -45
0 -55 32 -55 181 0 76 -3 145 -7 155 -4 11 -19 -28 -41 -107 -18 -68 -41 -132
-49 -141 -19 -21 -56 -24 -70 -5 -6 6 -23 74 -39 149 -15 75 -31 135 -34 132
-3 -3 -12 -79 -21 -169 -9 -97 -21 -170 -28 -179 -17 -20 -65 -21 -81 -1 -10
12 -5 79 25 337 20 178 41 328 47 335 12 15 64 17 73 4z m-3028 -853 c14 -13
23 -33 23 -50 0 -36 -40 -78 -75 -78 -14 0 -37 11 -50 25 -69 68 31 170 102
103z m4263 2 c30 -30 27 -83 -6 -109 -35 -28 -69 -26 -99 4 -30 30 -32 64 -4
99 26 33 79 36 109 6z m-4076 -191 c33 -15 50 -57 37 -92 -27 -69 -129 -59
-147 15 -5 22 0 33 24 58 33 33 48 36 86 19z m3879 0 c24 -11 47 -47 47 -73 0
-7 -9 -25 -21 -40 -26 -33 -79 -36 -109 -6 -30 30 -27 83 6 109 30 24 43 26
77 10z m-408 -359 c12 -13 15 -27 11 -44 -8 -32 -80 -67 -293 -139 -678 -233
-1371 -273 -2078 -120 -220 47 -580 163 -662 213 -49 30 -41 90 12 90 11 0 60
-16 109 -35 763 -299 1601 -340 2391 -116 153 43 357 116 420 149 50 27 67 27
90 2z"/>
<path d="M2885 4576 c241 -107 448 -196 450 -194 2 2 -2 26 -8 55 -10 48 -13
53 -53 68 -28 11 -51 28 -64 51 l-22 34 -166 0 c-147 -1 -163 -2 -137 -14z"/>
<path d="M2756 4517 l-29 -24 22 -254 c12 -140 21 -261 21 -269 0 -19 59 -43
74 -31 350 271 466 365 459 372 -7 6 -508 229 -515 229 -2 0 -16 -11 -32 -23z"/>
<path d="M2442 4409 l-152 -110 0 -40 c0 -22 -6 -52 -14 -67 -13 -26 -10 -32
92 -180 85 -123 108 -150 114 -135 16 38 139 624 133 633 -3 6 -9 10 -13 10
-4 0 -76 -50 -160 -111z"/>
<path d="M3394 4506 c-5 -12 98 -502 107 -511 2 -2 15 -5 29 -7 21 -2 40 14
112 93 64 70 84 99 77 110 -5 8 -9 37 -9 64 l0 50 -149 108 c-82 59 -152 107
-156 107 -3 0 -8 -6 -11 -14z"/>
<path d="M2606 4102 c-32 -155 -57 -284 -55 -286 2 -2 18 1 35 5 23 7 33 16
37 36 6 29 34 65 63 81 16 9 16 25 -2 228 l-19 219 -59 -283z"/>
<path d="M3120 4064 c-129 -102 -236 -189 -238 -194 -2 -6 14 -8 40 -5 24 3
131 10 238 15 160 9 197 14 205 27 6 9 23 31 38 49 l29 34 -22 92 c-32 141
-40 168 -48 167 -4 0 -113 -84 -242 -185z"/>
<path d="M3690 4033 c-50 -56 -84 -102 -82 -111 2 -10 6 -30 9 -47 4 -28 13
-33 158 -91 147 -59 155 -61 170 -44 15 17 12 31 -40 197 -32 98 -58 178 -59
179 0 1 -17 3 -36 6 -34 5 -39 1 -120 -89z"/>
<path d="M2096 3939 l-58 -181 25 -26 25 -25 171 39 c94 22 171 42 171 46 0 4
-50 80 -111 168 -97 141 -114 160 -138 160 -27 0 -29 -4 -85 -181z"/>
<path d="M3243 3813 c-29 -2 -53 -7 -53 -11 0 -4 24 -31 53 -60 51 -51 55 -53
94 -46 50 8 106 -16 129 -55 l16 -26 191 22 c106 12 199 23 207 23 8 1 -51 28
-132 60 l-148 60 -37 -26 c-32 -22 -46 -25 -88 -21 -43 4 -54 10 -86 46 -28
32 -43 41 -65 39 -16 -1 -53 -3 -81 -5z"/>
<path d="M2909 3793 c-17 -3 -31 -15 -42 -38 l-16 -34 57 -100 c56 -100 57
-101 95 -101 78 0 137 -58 137 -135 0 -37 -19 -80 -44 -97 -5 -3 32 -100 90
-232 85 -194 100 -222 105 -197 3 16 9 153 13 304 l8 276 -27 17 c-48 31 -71
115 -46 163 8 13 -5 34 -62 98 l-72 82 -85 -1 c-47 -1 -97 -3 -111 -5z"/>
<path d="M2558 3743 c-10 -2 -18 -6 -18 -8 0 -2 11 -80 25 -175 14 -95 25
-176 25 -181 0 -5 9 -9 21 -9 12 0 37 -16 57 -36 l35 -35 81 33 c76 31 81 35
87 68 3 19 11 45 19 56 12 19 7 32 -46 128 -46 83 -63 105 -77 102 -29 -7 -88
14 -112 40 -21 23 -53 29 -97 17z"/>
<path d="M2253 3673 c-146 -35 -152 -37 -158 -64 -4 -15 -18 -40 -32 -55 l-25
-27 58 -182 c46 -146 60 -181 73 -178 10 2 65 109 139 267 67 144 122 266 122
269 0 10 -13 8 -177 -30z"/>
<path d="M2362 3383 c-76 -165 -110 -249 -103 -256 7 -7 40 2 101 28 78 33 90
41 84 57 -11 36 6 88 42 123 l35 35 -17 123 c-9 67 -20 125 -23 129 -3 4 -57
-104 -119 -239z"/>
<path d="M3677 3566 c-175 -21 -179 -22 -193 -48 -14 -27 -12 -29 138 -196
l153 -168 37 9 c33 8 39 15 52 56 8 25 33 104 56 174 l40 128 -26 34 c-31 41
-15 40 -257 11z"/>
<path d="M3386 3431 c-3 -4 -10 -151 -16 -326 -11 -301 -10 -318 7 -331 10 -7
20 -14 23 -14 3 0 73 49 155 108 l150 109 2 49 c2 27 4 58 5 70 2 14 -40 69
-142 182 -132 148 -169 178 -184 153z"/>
<path d="M2798 3262 c-65 -28 -88 -43 -93 -59 -3 -13 -19 -39 -36 -58 l-31
-35 26 -153 c14 -83 26 -156 26 -161 0 -25 25 26 120 242 91 209 108 263 83
262 -4 -1 -47 -18 -95 -38z"/>
<path d="M2955 3193 c-15 -32 -63 -141 -107 -241 l-81 -184 21 -36 21 -37 191
0 191 0 21 37 21 36 -105 239 c-122 276 -130 284 -173 186z"/>
<path d="M2395 3094 c-44 -19 -83 -38 -86 -42 -4 -4 -9 -21 -12 -39 -6 -31 -3
-34 116 -119 67 -48 136 -98 152 -110 21 -16 35 -20 45 -14 12 7 10 32 -13
166 -15 86 -30 161 -33 166 -3 4 -14 8 -24 8 -10 0 -22 5 -25 10 -10 16 -35
11 -120 -26z"/>
<path d="M1890 1913 c0 -32 -3 -82 -6 -110 l-7 -53 72 0 c119 0 161 29 161
108 0 55 -38 86 -123 101 -101 17 -97 19 -97 -46z"/>
<path d="M2410 1866 l0 -96 73 0 c119 0 178 46 148 117 -18 44 -64 66 -148 71
l-73 5 0 -97z"/>
</g>
</svg>
