<?xml version="1.0" standalone="no"?>
<!DOCTYPE svg PUBLIC "-//W3C//DTD SVG 20010904//EN"
 "http://www.w3.org/TR/2001/REC-SVG-20010904/DTD/svg10.dtd">
<svg  version="1.0" xmlns="http://www.w3.org/2000/svg"
 width="600.000000pt" height="600.000000pt" viewBox="0 0 600.000000 600.000000"
 preserveAspectRatio="xMidYMid meet">
  <circle cx="300" cy="300" r="300" fill="white" />
<g  transform="translate(0.000000,600.000000) scale(0.100000,-0.100000)"
fill="#1652F1" stroke="none">
<path d="M2735 5730 c-226 -14 -482 -57 -722 -121 -147 -39 -387 -121 -480
-164 -67 -31 -73 -36 -73 -64 0 -51 31 -50 173 8 262 106 630 199 942 237 178
22 637 25 805 6 365 -42 787 -149 1036 -262 37 -16 74 -30 83 -30 43 0 56 60
18 85 -41 26 -286 115 -441 160 -444 127 -872 174 -1341 145z"/>
<path d="M1016 5109 c-50 -40 -21 -119 44 -119 64 0 91 70 45 115 -30 30 -54
31 -89 4z"/>
<path d="M4895 5105 c-46 -45 -19 -115 45 -115 65 0 94 79 44 119 -35 27 -59
26 -89 -4z"/>
<path d="M835 4960 c-59 -65 33 -162 95 -100 26 26 26 81 2 103 -26 23 -75 21
-97 -3z"/>
<path d="M5067 4962 c-38 -42 -7 -122 47 -122 60 0 92 75 51 120 -23 25 -76
26 -98 2z"/>
<path d="M2588 4730 c-38 -38 -39 -41 -37 -97 l3 -58 -154 -113 c-104 -75
-160 -110 -170 -105 -8 3 -36 8 -62 11 -41 3 -50 0 -83 -30 -51 -47 -59 -106
-20 -163 l27 -39 -58 -182 -59 -182 -35 -6 c-48 -8 -78 -34 -94 -80 -26 -76
16 -153 90 -165 l38 -6 58 -183 59 -183 -22 -30 c-46 -65 -31 -150 34 -189 36
-22 70 -25 115 -9 31 10 37 7 185 -101 l154 -111 -4 -52 c-3 -40 1 -60 17 -85
54 -87 186 -73 226 25 l14 33 190 0 190 0 14 -33 c28 -69 103 -101 169 -73 52
21 78 68 75 134 l-2 52 152 110 152 110 44 -12 c58 -15 111 4 144 52 29 43 26
102 -7 149 l-22 31 57 179 57 179 41 11 c133 33 133 200 0 246 l-39 13 -59
178 -59 179 27 40 c39 57 33 116 -18 162 -29 27 -44 33 -82 33 -25 0 -53 -4
-63 -10 -15 -7 -48 12 -172 103 l-154 111 0 63 c0 57 -3 65 -32 94 -63 64
-175 44 -204 -35 l-13 -36 -196 0 -195 1 -17 37 c-22 47 -63 72 -118 72 -36 0
-48 -6 -82 -40z m619 -160 c11 -30 65 -70 95 -70 12 0 20 -15 28 -55 6 -31 10
-59 8 -64 -3 -8 -453 184 -488 208 -10 7 40 10 165 10 l181 1 11 -30z m-139
-145 c138 -60 252 -113 252 -116 0 -3 -110 -92 -244 -197 l-245 -191 -30 15
c-36 18 -34 5 -61 324 -14 164 -18 246 -11 248 6 2 21 12 33 22 13 10 29 15
39 11 9 -3 129 -55 267 -116z m-441 72 c-2 -7 -35 -155 -73 -330 -38 -174 -72
-316 -76 -315 -4 2 -55 72 -113 157 l-106 153 16 41 c9 22 15 53 13 70 -3 27
7 37 152 142 125 91 159 110 173 103 10 -5 17 -15 14 -21z m946 -87 l145 -105
-1 -45 c-1 -25 2 -55 6 -67 7 -18 -6 -37 -79 -118 -81 -90 -90 -96 -118 -91
-16 4 -30 7 -31 9 -1 1 -28 116 -59 256 -41 189 -53 258 -45 267 14 17 6 21
182 -106z m-883 -240 c12 -139 17 -226 11 -228 -29 -10 -62 -48 -72 -82 -10
-34 -17 -41 -46 -46 -19 -4 -36 -4 -38 -2 -3 3 22 133 55 289 33 156 60 288
60 293 0 5 2 7 5 5 2 -3 14 -106 25 -229z m717 -47 l31 -138 -28 -28 c-16 -16
-32 -37 -35 -48 -8 -25 -15 -26 -250 -38 -242 -13 -258 -14 -253 -2 3 10 489
391 498 391 3 0 20 -62 37 -137z m-1091 -150 c124 -179 127 -183 122 -188 -2
-2 -82 -22 -178 -45 l-174 -40 -28 27 -27 28 57 179 c57 178 66 193 108 195 7
1 61 -70 120 -156z m1513 148 c21 -6 31 -29 82 -186 58 -178 58 -180 39 -199
-19 -20 -21 -19 -172 41 l-152 60 -14 51 -14 51 87 96 c86 93 96 100 144 86z
m-450 -325 c39 -63 132 -79 188 -32 l28 24 153 -61 c84 -33 149 -64 145 -67
-5 -4 -98 -17 -207 -29 l-200 -22 -22 29 c-31 39 -74 56 -129 49 -45 -5 -46
-4 -100 56 -30 33 -53 62 -50 65 2 2 39 8 82 12 43 4 81 8 85 9 3 0 16 -14 27
-33z m-205 -70 l77 -84 -12 -43 c-15 -56 6 -111 50 -137 l31 -17 -6 -175 c-4
-96 -9 -242 -13 -325 l-6 -150 -106 240 -106 240 23 27 c46 57 39 135 -17 183
-23 19 -42 25 -77 25 l-47 0 -61 107 -60 106 20 38 c20 37 23 38 81 42 167 9
144 17 229 -77z m-530 19 c9 -25 69 -55 107 -55 36 0 38 -2 97 -104 l61 -104
-20 -38 c-10 -21 -19 -48 -19 -60 0 -18 -15 -28 -86 -58 l-86 -36 -20 25 c-11
14 -37 34 -57 44 l-37 19 -23 174 c-13 95 -24 177 -25 183 0 5 15 12 34 16 57
11 68 10 74 -6z m-204 -32 c0 -5 -57 -131 -127 -281 -108 -230 -131 -272 -147
-270 -16 2 -30 36 -76 183 l-57 180 24 29 c13 16 27 42 30 58 3 18 13 30 27
34 44 11 311 72 319 73 4 1 7 -2 7 -6z m69 -217 l18 -130 -33 -31 c-36 -34
-49 -69 -42 -115 4 -28 2 -30 -91 -70 -152 -65 -158 -96 101 460 24 52 22 57
47 -114z m1428 67 l30 -38 -56 -177 c-31 -97 -58 -178 -61 -181 -3 -2 -21 -7
-41 -11 l-37 -6 -151 167 c-140 156 -151 170 -145 198 3 16 7 31 8 32 1 1 94
13 206 26 113 14 208 25 211 26 3 1 19 -16 36 -36z m-360 -283 c150 -167 152
-170 141 -200 -6 -17 -8 -47 -5 -66 l6 -34 -156 -113 c-155 -113 -157 -114
-186 -99 -25 13 -28 18 -23 51 3 20 8 165 12 324 6 250 9 289 23 297 9 5 21 9
26 9 6 0 78 -76 162 -169z m-737 -187 c-133 -301 -140 -316 -147 -310 -3 4
-19 80 -34 169 l-28 163 22 18 c12 10 31 37 42 59 18 36 30 44 110 78 136 58
137 55 35 -177z m293 -84 l108 -246 -23 -36 -23 -36 -195 0 -195 0 -23 36 -23
36 97 221 c126 288 121 278 147 274 18 -2 40 -46 130 -249z m-601 111 l44 -19
23 -143 c12 -79 25 -153 28 -165 3 -15 -1 -23 -16 -28 -16 -5 -55 19 -171 102
l-150 108 0 40 0 40 98 42 c53 23 98 42 98 42 1 1 21 -8 46 -19z"/>
<path d="M576 4518 c-39 -61 -149 -381 -200 -583 -79 -316 -110 -583 -110
-935 1 -366 32 -626 114 -946 39 -151 131 -427 175 -521 31 -67 36 -73 64 -73
51 0 49 30 -12 186 -74 188 -129 368 -172 569 -155 718 -94 1465 177 2159 54
138 55 158 5 164 -18 2 -30 -4 -41 -20z"/>
<path d="M5347 4503 c-14 -14 -5 -49 47 -181 341 -862 338 -1839 -6 -2706 -21
-54 -38 -111 -36 -125 3 -22 8 -26 38 -26 33 0 35 2 66 76 125 299 214 651
260 1029 22 178 25 616 5 790 -38 345 -122 689 -243 1000 -52 133 -63 150 -97
150 -15 0 -31 -3 -34 -7z"/>
<path d="M1809 2044 c-16 -20 -50 -628 -37 -656 11 -24 64 -24 72 -1 4 9 9 53
12 98 3 44 7 98 10 120 l5 40 84 1 c145 3 224 46 255 139 17 53 8 135 -19 174
-44 61 -162 101 -302 101 -49 0 -70 -4 -80 -16z m213 -85 c21 -5 50 -21 65
-34 23 -19 28 -32 28 -68 0 -80 -57 -117 -177 -117 l-58 0 0 99 c0 55 3 106 6
115 7 19 78 22 136 5z"/>
<path d="M2337 2048 c-15 -12 -18 -51 -28 -331 -11 -341 -10 -347 37 -347 34
0 44 28 44 123 0 46 3 105 6 131 l7 46 56 0 57 0 69 -141 c71 -142 90 -165
125 -154 34 11 23 56 -41 176 -33 63 -61 117 -62 121 -1 4 18 17 43 30 137 70
127 254 -18 316 -87 38 -261 55 -295 30z m235 -99 c48 -24 68 -51 68 -91 0
-46 -23 -72 -77 -87 -47 -13 -150 -14 -158 -2 -3 6 -2 53 1 107 l7 97 68 -6
c37 -3 78 -11 91 -18z"/>
<path d="M2866 2044 c-36 -36 -6 -74 60 -74 l44 0 -6 -247 c-3 -137 -7 -253
-9 -260 -2 -7 -28 -13 -62 -15 l-58 -3 0 -35 0 -35 165 0 165 0 0 35 0 35 -55
5 -55 5 3 150 c1 83 5 198 8 258 l6 107 48 0 c67 0 93 27 70 71 -10 17 -23 19
-160 19 -122 0 -151 -3 -164 -16z"/>
<path d="M3435 2046 c-51 -19 -91 -64 -105 -117 -23 -86 11 -152 110 -215 130
-82 174 -150 136 -209 -33 -50 -146 -41 -188 15 -38 52 -96 29 -81 -31 14 -59
95 -109 188 -116 49 -4 68 0 104 19 64 33 84 66 89 141 3 50 0 72 -16 104 -25
49 -86 104 -149 137 -74 37 -103 69 -103 111 0 41 36 85 70 85 34 0 83 -25
114 -59 33 -34 66 -40 90 -15 22 22 20 38 -10 74 -57 67 -174 103 -249 76z"/>
<path d="M3839 2044 c-12 -15 -78 -540 -79 -630 0 -35 4 -43 22 -47 13 -4 32
0 44 8 19 12 23 29 34 147 19 201 26 254 33 238 3 -8 19 -80 36 -159 30 -141
42 -171 65 -171 32 0 48 33 86 169 22 79 41 146 43 148 3 2 8 -77 12 -175 4
-98 10 -183 13 -189 11 -16 36 -21 61 -12 l23 9 -7 313 c-4 171 -11 322 -16
333 -9 27 -40 35 -71 20 -19 -10 -30 -39 -73 -199 -27 -103 -52 -187 -55 -187
-3 0 -27 84 -54 188 -28 107 -55 192 -64 200 -21 16 -37 15 -53 -4z"/>
<path d="M795 1208 c-28 -16 -35 -28 -35 -64 0 -39 27 -64 68 -64 58 0 90 76
49 117 -19 18 -60 24 -82 11z"/>
<path d="M5055 1208 c-28 -16 -35 -28 -35 -64 0 -39 27 -64 68 -64 58 0 90 76
49 117 -19 18 -60 24 -82 11z"/>
<path d="M980 990 c-27 -27 -25 -66 5 -95 30 -30 54 -31 89 -4 50 40 21 119
-44 119 -17 0 -39 -9 -50 -20z"/>
<path d="M4860 990 c-27 -27 -25 -66 5 -95 30 -30 54 -31 89 -4 50 40 21 119
-44 119 -17 0 -39 -9 -50 -20z"/>
<path d="M4437 639 c-52 -28 -237 -94 -376 -135 -792 -235 -1654 -198 -2419
102 -92 37 -116 43 -133 34 -14 -8 -19 -19 -17 -38 4 -36 62 -64 293 -141 279
-92 491 -139 805 -177 177 -22 603 -25 790 -5 342 35 751 135 1040 254 109 45
122 54 118 91 -3 26 -7 31 -33 33 -16 2 -47 -6 -68 -18z"/>
</g>
</svg>
